<svg xmlns="http://www.w3.org/2000/svg" width="1024" height="1024" viewBox="0 0 1024 1024" role="img" aria-label="IQritsa mobile icon source">
  <defs>
    <linearGradient id="bg" x1="0" y1="0" x2="1" y2="1">
      <stop offset="0%" stop-color="#050510" />
      <stop offset="100%" stop-color="#1b1f3f" />
    </linearGradient>
    <linearGradient id="brain" x1="0" y1="0" x2="0" y2="1">
      <stop offset="0%" stop-color="#ffc6d3" />
      <stop offset="100%" stop-color="#e98698" />
    </linearGradient>
  </defs>
  <rect width="1024" height="1024" rx="226" fill="url(#bg)" />
  <ellipse cx="512" cy="618" rx="236" ry="194" fill="#f6f2e7" stroke="#d8d0c1" stroke-width="20" />
  <circle cx="512" cy="388" r="168" fill="#fbf8ee" stroke="#d8d0c1" stroke-width="20" />
  <ellipse cx="436" cy="385" rx="48" ry="54" fill="#fff" />
  <ellipse cx="588" cy="385" rx="48" ry="54" fill="#fff" />
  <circle cx="444" cy="396" r="14" fill="#161616" />
  <circle cx="580" cy="396" r="14" fill="#161616" />
  <path d="M512 456 L590 488 L512 526 L434 488 Z" fill="#f7a400" stroke="#b96f00" stroke-width="10" />
  <ellipse cx="512" cy="236" rx="184" ry="112" fill="url(#brain)" stroke="#d57184" stroke-width="16" />
  <path d="M416 214c28-38 74-38 102 0M476 274c28-28 72-26 96 8M364 254c34-30 70-28 102-6M552 210c28-32 68-30 92 0" fill="none" stroke="#d57184" stroke-width="16" stroke-linecap="round" />
</svg>
