<svg xmlns="http://www.w3.org/2000/svg" width="512" height="512" viewBox="0 0 512 512" role="img" aria-label="IQritsa icon 512">
  <defs>
    <linearGradient id="bg" x1="0" y1="0" x2="1" y2="1">
      <stop offset="0%" stop-color="#050510" />
      <stop offset="100%" stop-color="#1b1f3f" />
    </linearGradient>
    <linearGradient id="brain" x1="0" y1="0" x2="0" y2="1">
      <stop offset="0%" stop-color="#ffc6d3" />
      <stop offset="100%" stop-color="#e98698" />
    </linearGradient>
    <linearGradient id="beak" x1="0" y1="0" x2="0" y2="1">
      <stop offset="0%" stop-color="#ffc84f" />
      <stop offset="100%" stop-color="#ef9700" />
    </linearGradient>
  </defs>
  <rect width="512" height="512" rx="118" fill="url(#bg)" />
  <ellipse cx="256" cy="310" rx="118" ry="96" fill="#f6f2e7" stroke="#d8d0c1" stroke-width="10" />
  <circle cx="256" cy="194" r="84" fill="#fbf8ee" stroke="#d8d0c1" stroke-width="10" />
  <ellipse cx="218" cy="192" rx="24" ry="28" fill="#fff" />
  <ellipse cx="294" cy="192" rx="24" ry="28" fill="#fff" />
  <circle cx="222" cy="198" r="8" fill="#161616" />
  <circle cx="290" cy="198" r="8" fill="#161616" />
  <path d="M256 228 L294 244 L256 262 L218 244 Z" fill="url(#beak)" stroke="#b96f00" stroke-width="6" />
  <ellipse cx="256" cy="120" rx="92" ry="56" fill="url(#brain)" stroke="#d57184" stroke-width="8" />
  <path d="M208 110c14-19 37-19 51 0M238 140c14-14 36-13 48 4M182 130c17-15 35-14 51-3M276 108c14-16 34-15 46 0" fill="none" stroke="#d57184" stroke-width="8" stroke-linecap="round" />
</svg>
