<svg xmlns="http://www.w3.org/2000/svg" width="860" height="220" viewBox="0 0 860 220" role="img" aria-label="IQritsa brand logo">
  <defs>
    <linearGradient id="bg" x1="0" y1="0" x2="1" y2="1">
      <stop offset="0%" stop-color="#17100a" />
      <stop offset="55%" stop-color="#4b2b12" />
      <stop offset="100%" stop-color="#090807" />
    </linearGradient>
    <linearGradient id="gold" x1="0" y1="0" x2="0" y2="1">
      <stop offset="0%" stop-color="#fff0a6" />
      <stop offset="45%" stop-color="#f1b82f" />
      <stop offset="100%" stop-color="#9b5510" />
    </linearGradient>
    <linearGradient id="brain" x1="0" y1="0" x2="0" y2="1">
      <stop offset="0%" stop-color="#ffd0da" />
      <stop offset="100%" stop-color="#d96c7f" />
    </linearGradient>
    <filter id="glow" x="-30%" y="-30%" width="160%" height="160%">
      <feGaussianBlur stdDeviation="5" result="blur" />
      <feMerge>
        <feMergeNode in="blur" />
        <feMergeNode in="SourceGraphic" />
      </feMerge>
    </filter>
  </defs>
  <rect width="860" height="220" rx="28" fill="url(#bg)" />
  <circle cx="146" cy="110" r="74" fill="#2b1b10" stroke="url(#gold)" stroke-width="7" />
  <ellipse cx="146" cy="130" rx="52" ry="45" fill="#fff2db" stroke="#5a351b" stroke-width="4" />
  <circle cx="146" cy="83" r="34" fill="#fff7e8" stroke="#5a351b" stroke-width="4" />
  <ellipse cx="132" cy="82" rx="11" ry="14" fill="#fff" />
  <ellipse cx="160" cy="82" rx="11" ry="14" fill="#fff" />
  <circle cx="135" cy="84" r="4" fill="#111" />
  <circle cx="157" cy="84" r="4" fill="#111" />
  <path d="M146 96l25 10-25 15-25-15z" fill="#f7a91d" stroke="#7a4308" stroke-width="3" />
  <ellipse cx="146" cy="45" rx="45" ry="26" fill="url(#brain)" stroke="#923948" stroke-width="4" />
  <path d="M112 45c9-14 25-14 34 0M136 58c10-10 25-9 34 2M156 39c10-12 24-11 32 0" fill="none" stroke="#923948" stroke-width="4" stroke-linecap="round" />
  <path d="M142 18c6-24 24-24 30-2c7-17 24-16 31 2" fill="none" stroke="#d72d24" stroke-width="9" stroke-linecap="round" />
  <ellipse cx="218" cy="152" rx="28" ry="36" fill="url(#gold)" filter="url(#glow)" />
  <text x="202" y="164" fill="#5a351b" font-family="Georgia, serif" font-weight="800" font-size="34">IQ</text>
  <text x="280" y="125" fill="url(#gold)" stroke="#5a351b" stroke-width="3" paint-order="stroke" font-family="Georgia, serif" font-weight="900" font-size="82">IQritsa</text>
  <text x="286" y="164" fill="#ffd56a" font-family="Inter, Arial, sans-serif" font-weight="800" font-size="30">IQюрица</text>
  <path d="M276 177h430" stroke="#f1b82f" stroke-width="4" stroke-linecap="round" opacity="0.75" />
</svg>
