<svg xmlns="http://www.w3.org/2000/svg" width="1200" height="630" viewBox="0 0 1200 630" role="img" aria-label="IQritsa Open Graph image">
  <defs>
    <radialGradient id="bg" cx="48%" cy="42%" r="74%">
      <stop offset="0%" stop-color="#684018" />
      <stop offset="58%" stop-color="#1d130b" />
      <stop offset="100%" stop-color="#070605" />
    </radialGradient>
    <linearGradient id="gold" x1="0" y1="0" x2="0" y2="1">
      <stop offset="0%" stop-color="#fff2aa" />
      <stop offset="48%" stop-color="#efb323" />
      <stop offset="100%" stop-color="#8c4b09" />
    </linearGradient>
    <linearGradient id="brain" x1="0" y1="0" x2="0" y2="1">
      <stop offset="0%" stop-color="#ffd0da" />
      <stop offset="100%" stop-color="#d96c7f" />
    </linearGradient>
    <filter id="glow" x="-30%" y="-30%" width="160%" height="160%">
      <feGaussianBlur stdDeviation="9" result="blur" />
      <feMerge>
        <feMergeNode in="blur" />
        <feMergeNode in="SourceGraphic" />
      </feMerge>
    </filter>
  </defs>
  <rect width="1200" height="630" fill="url(#bg)" />
  <path d="M0 500c170-70 350-60 520-8s320 58 680-36v174H0z" fill="#120b07" opacity="0.82" />
  <g transform="translate(96 84)">
    <ellipse cx="270" cy="346" rx="155" ry="112" fill="#fff1dc" stroke="#4d2a12" stroke-width="8" />
    <circle cx="270" cy="205" r="92" fill="#fff7e8" stroke="#4d2a12" stroke-width="8" />
    <ellipse cx="226" cy="202" rx="29" ry="36" fill="#fff" />
    <ellipse cx="311" cy="202" rx="29" ry="36" fill="#fff" />
    <circle cx="236" cy="209" r="10" fill="#111" />
    <circle cx="302" cy="209" r="10" fill="#111" />
    <path d="M270 244l62 26-62 38-62-38z" fill="#f7a91d" stroke="#7a4308" stroke-width="7" />
    <ellipse cx="270" cy="106" rx="112" ry="68" fill="url(#brain)" stroke="#923948" stroke-width="8" />
    <path d="M206 100c18-25 50-25 68 0M250 128c21-19 52-18 70 3M305 92c20-24 50-22 66 0" fill="none" stroke="#923948" stroke-width="8" stroke-linecap="round" />
    <path d="M258 40c12-52 54-48 68-5c14-36 54-34 68 6" fill="none" stroke="#d72d24" stroke-width="19" stroke-linecap="round" />
  </g>
  <ellipse cx="724" cy="370" rx="98" ry="128" fill="url(#gold)" filter="url(#glow)" />
  <text x="663" y="405" fill="#5a351b" font-family="Georgia, serif" font-weight="900" font-size="86">IQ</text>
  <text x="595" y="222" fill="url(#gold)" stroke="#5a351b" stroke-width="5" paint-order="stroke" font-family="Georgia, serif" font-weight="900" font-size="112">IQritsa</text>
  <text x="603" y="288" fill="#ffd56a" font-family="Inter, Arial, sans-serif" font-weight="800" font-size="44">IQюрица</text>
  <text x="604" y="474" fill="#f8e4aa" font-family="Inter, Arial, sans-serif" font-weight="700" font-size="34">Мозговая курица. Золотые нейрозёрна. IQ-яйца.</text>
</svg>
